<mxfile host="app.diagrams.net" modified="2024-07-17T06:31:53.005Z" agent="Mozilla/5.0 (Windows NT 10.0; Win64; x64) AppleWebKit/537.36 (KHTML, like Gecko) Chrome/126.0.0.0 Safari/537.36" version="24.7.0" etag="2reJWcGNs5eb_tIbOYmh" type="github">
  <diagram name="페이지-1" id="EopGrWqb0hotPbs-TlSM">
    <mxGraphModel>
      <root>
        <mxCell id="0" />
        <mxCell id="1" parent="0" />
      </root>
    </mxGraphModel>
  </diagram>
</mxfile>
